<?xml version="1.0" standalone="no"?>
<!DOCTYPE svg PUBLIC "-//W3C//DTD SVG 20010904//EN" "http://www.w3.org/TR/2001/REC-SVG-20010904/DTD/svg10.dtd">
<svg version="1.0" xmlns="http://www.w3.org/2000/svg" width="260pt" height="260pt" viewBox="0 0 260 260" preserveAspectRatio="xMidYMid meet">
    <g transform="translate(0,260) scale(0.1,-0.1)" fill="#000000" stroke="none">
        <path d="M507 1868 c-78 -16 -147 -72 -190 -152 -32 -61 -32 -203 1 -266 67 -128 198 -189 321 -149 118 38 195 152 194 285 -1 184 -156 318 -326 282z"/>
        <path d="M1959 1857 c-155 -58 -229 -216 -176 -376 39 -120 137 -194 257 -194 102 0 176 47 236 148 27 46 29 58 29 145 0 85 -3 100 -27 140 -55 94 -125 140 -223 147 -35 2 -75 -2 -96 -10z"/>
        <path d="M1043 1399 c-58 -22 -49 -105 13 -115 43 -7 69 24 65 78 -1 24 -50 48 -78 37z"/>
        <path d="M1290 1402 c-50 -16 -65 -67 -30 -102 27 -27 56 -25 85 6 20 21 22 30 14 53 -11 30 -44 51 -69 43z"/>
        <path d="M1513 1397 c-42 -19 -47 -74 -9 -106 28 -23 84 1 91 39 9 48 -38 87 -82 67z"/>
        <path d="M444 1203 c-46 -8 -108 -28 -153 -50 -212 -101 -336 -365 -203 -429 34 -16 75 -18 467 -18 237 0 442 3 456 7 84 22 100 106 44 223 -99 203 -347 311 -611 267z"/>
        <path d="M1874 1190 c-199 -55 -356 -216 -363 -371 -2 -44 2 -53 28 -78 17 -16 44 -31 62 -35 17 -3 223 -5 458 -3 463 2 472 3 498 59 44 98 -74 296 -227 377 -128 69 -317 90 -456 51z"/>
    </g>
</svg>